<svg version="1.1" id="Layer_1" xmlns="http://www.w3.org/2000/svg" xmlns:xlink="http://www.w3.org/1999/xlink" x="0px" y="0px"
	 width="100%" viewBox="0 0 986 700" enable-background="new 0 0 986 700" xml:space="preserve">
<path fill="none" opacity="1.000000" stroke="none" 
	d="
M1.000000,590.000000 
	C1.000000,581.976685 1.000000,573.953369 1.463250,565.541260 
	C111.510880,565.152527 221.095261,565.152527 330.745514,565.152527 
	C330.745514,557.210754 330.745514,549.796570 330.745514,542.032776 
	C317.048798,542.032776 303.588226,542.061035 290.127838,542.021729 
	C282.687531,542.000000 278.801605,538.170898 278.732941,530.663757 
	C278.641479,520.665649 278.708862,510.666168 278.708557,500.667267 
	C278.707672,471.503815 278.759338,442.340149 278.654724,413.177063 
	C278.637390,408.341431 279.484131,403.969055 284.071411,401.771423 
	C286.487000,400.614166 289.544556,400.470764 292.318085,400.442627 
	C305.087830,400.313171 317.859650,400.385559 330.692200,400.385559 
	C330.692200,391.677429 330.692200,383.446533 330.692200,375.000000 
	C220.600250,375.000000 110.800125,375.000000 1.000000,375.000000 
	C1.000000,368.643311 1.000000,362.286621 1.468434,355.480469 
	C65.031013,355.031006 128.125153,355.031006 191.754349,355.031006 
	C191.754349,339.978027 191.792831,325.493195 191.746521,311.008606 
	C191.643234,278.696259 191.497849,246.384064 191.367905,214.071808 
	C191.364563,213.238861 191.353668,212.405548 191.325470,211.573120 
	C190.533295,188.179474 172.924530,171.009384 149.566055,170.980408 
	C114.077553,170.936401 78.588936,170.947006 43.100407,170.978455 
	C24.410210,170.995026 9.017285,182.122696 3.027048,199.766266 
	C2.527594,201.237350 1.683804,202.591507 0.999999,204.000000 
	C1.000000,136.362045 1.000000,68.724091 1.000000,1.000000 
	C271.023315,1.000000 541.046631,1.000000 811.338684,1.269715 
	C809.804565,3.254042 807.918457,4.889887 806.210815,6.694611 
	C732.454407,84.641479 658.627502,162.521973 585.034729,240.623123 
	C567.586731,259.139954 549.886414,277.576538 534.124146,297.492035 
	C499.232666,341.577209 465.493958,386.574860 431.295258,431.208130 
	C423.746521,441.060120 416.239777,450.944305 408.576294,460.993896 
	C433.448364,480.086487 457.918579,498.870636 482.449890,517.701660 
	C483.656525,516.201599 484.618652,515.055481 485.527466,513.868469 
	C517.586914,471.998199 549.658020,430.136810 581.688110,388.244080 
	C594.113159,371.993164 607.866272,356.550690 618.585632,339.236298 
	C685.702515,230.826187 752.118103,121.981972 818.843262,13.329022 
	C821.652710,8.754279 822.100830,4.852163 818.000000,1.000000 
	C874.318176,1.000000 930.636292,1.000000 986.977234,1.000000 
	C986.977234,234.255310 986.977234,467.510620 986.977234,701.000000 
	C658.333374,701.000000 329.666687,701.000000 1.468657,700.500000 
	C38.193623,700.000000 74.449936,700.000000 110.971413,700.000000 
	C110.971413,684.637939 110.894455,669.835571 110.999077,655.034424 
	C111.066299,645.524170 118.602013,637.913818 128.047989,637.882141 
	C153.206680,637.797791 178.366043,637.909180 203.524628,637.810974 
	C208.808197,637.790405 212.731247,640.015686 216.132568,643.774414 
	C219.879440,647.914978 220.584061,652.911682 220.576233,658.185059 
	C220.555756,671.978760 220.569321,685.772461 220.569321,699.651062 
	C281.919220,699.651062 342.947449,699.651062 403.705444,699.651062 
	C403.705444,662.906006 403.705444,626.510437 403.705444,590.153381 
	C403.029480,590.079224 402.704376,590.012268 402.379272,590.012268 
	C268.586182,590.005188 134.793091,590.002625 1.000000,590.000000 
M401.500000,519.002808 
	C414.226349,519.002808 426.952698,519.002808 440.710693,519.002808 
	C439.039490,517.572937 438.239441,516.819336 437.370850,516.155334 
	C418.356750,501.620453 399.330109,487.101959 380.317200,472.565460 
	C372.933136,466.919952 372.350128,462.715302 377.929993,455.380646 
	C385.726715,445.132019 393.549072,434.902893 401.783051,424.111633 
	C368.315582,424.111633 335.632202,424.111633 302.790833,424.111633 
	C302.790833,455.741699 302.790833,487.269073 302.790833,519.002808 
	C335.577179,519.002808 368.038605,519.002808 401.500000,519.002808 
z"/>
<path fill="currentColor" opacity="1.000000" stroke="none" 
	d="
M1.000000,375.468658 
	C110.800125,375.000000 220.600250,375.000000 330.692200,375.000000 
	C330.692200,383.446533 330.692200,391.677429 330.692200,400.385559 
	C317.859650,400.385559 305.087830,400.313171 292.318085,400.442627 
	C289.544556,400.470764 286.487000,400.614166 284.071411,401.771423 
	C279.484131,403.969055 278.637390,408.341431 278.654724,413.177063 
	C278.759338,442.340149 278.707672,471.503815 278.708557,500.667267 
	C278.708862,510.666168 278.641479,520.665649 278.732941,530.663757 
	C278.801605,538.170898 282.687531,542.000000 290.127838,542.021729 
	C303.588226,542.061035 317.048798,542.032776 330.745514,542.032776 
	C330.745514,549.796570 330.745514,557.210754 330.745514,565.152527 
	C221.095261,565.152527 111.510880,565.152527 1.463250,565.076294 
	C1.000000,501.979095 1.000000,438.958221 1.000000,375.468658 
z"/>
<path fill="currentColor" opacity="1.000000" stroke="none" 
	d="
M817.571533,1.000000 
	C822.100830,4.852163 821.652710,8.754279 818.843262,13.329022 
	C752.118103,121.981972 685.702515,230.826187 618.585632,339.236298 
	C607.866272,356.550690 594.113159,371.993164 581.688110,388.244080 
	C549.658020,430.136810 517.586914,471.998199 485.527466,513.868469 
	C484.618652,515.055481 483.656525,516.201599 482.449890,517.701660 
	C457.918579,498.870636 433.448364,480.086487 408.576294,460.993896 
	C416.239777,450.944305 423.746521,441.060120 431.295258,431.208130 
	C465.493958,386.574860 499.232666,341.577209 534.124146,297.492035 
	C549.886414,277.576538 567.586731,259.139954 585.034729,240.623123 
	C658.627502,162.521973 732.454407,84.641479 806.210815,6.694611 
	C807.918457,4.889887 809.804565,3.254042 811.803711,1.269715 
	C813.714355,1.000000 815.428711,1.000000 817.571533,1.000000 
z"/>
<path fill="currentColor" opacity="1.000000" stroke="none" 
	d="
M1.000000,590.468628 
	C134.793091,590.002625 268.586182,590.005188 402.379272,590.012268 
	C402.704376,590.012268 403.029480,590.079224 403.705444,590.153381 
	C403.705444,626.510437 403.705444,662.906006 403.705444,699.651062 
	C342.947449,699.651062 281.919220,699.651062 220.569321,699.651062 
	C220.569321,685.772461 220.555756,671.978760 220.576233,658.185059 
	C220.584061,652.911682 219.879440,647.914978 216.132568,643.774414 
	C212.731247,640.015686 208.808197,637.790405 203.524628,637.810974 
	C178.366043,637.909180 153.206680,637.797791 128.047989,637.882141 
	C118.602013,637.913818 111.066299,645.524170 110.999077,655.034424 
	C110.894455,669.835571 110.971413,684.637939 110.971413,700.000000 
	C74.449936,700.000000 38.193623,700.000000 1.468657,700.000000 
	C1.000000,663.645752 1.000000,627.291565 1.000000,590.468628 
z"/>
<path fill="currentColor" opacity="1.000000" stroke="none" 
	d="
M0.999999,204.468658 
	C1.683804,202.591507 2.527594,201.237350 3.027048,199.766266 
	C9.017285,182.122696 24.410210,170.995026 43.100407,170.978455 
	C78.588936,170.947006 114.077553,170.936401 149.566055,170.980408 
	C172.924530,171.009384 190.533295,188.179474 191.325470,211.573120 
	C191.353668,212.405548 191.364563,213.238861 191.367905,214.071808 
	C191.497849,246.384064 191.643234,278.696259 191.746521,311.008606 
	C191.792831,325.493195 191.754349,339.978027 191.754349,355.031006 
	C128.125153,355.031006 65.031013,355.031006 1.468434,355.015503 
	C1.000000,304.979095 1.000000,254.958206 0.999999,204.468658 
z"/>
<path fill="currentColor" opacity="1.000000" stroke="none" 
	d="
M401.000000,519.002808 
	C368.038605,519.002808 335.577179,519.002808 302.790833,519.002808 
	C302.790833,487.269073 302.790833,455.741699 302.790833,424.111633 
	C335.632202,424.111633 368.315582,424.111633 401.783051,424.111633 
	C393.549072,434.902893 385.726715,445.132019 377.929993,455.380646 
	C372.350128,462.715302 372.933136,466.919952 380.317200,472.565460 
	C399.330109,487.101959 418.356750,501.620453 437.370850,516.155334 
	C438.239441,516.819336 439.039490,517.572937 440.710693,519.002808 
	C426.952698,519.002808 414.226349,519.002808 401.000000,519.002808 
z"/>
</svg>