<svg version="1.1" id="Layer_1" xmlns="http://www.w3.org/2000/svg" xmlns:xlink="http://www.w3.org/1999/xlink" x="0px" y="0px"
	 width="100%" viewBox="0 0 986 700" enable-background="new 0 0 986 700" xml:space="preserve">
<path fill="none" opacity="1.000000" stroke="none" 
	d="
M0.999999,591.000000 
	C1.000000,582.974182 1.000000,574.948303 1.468439,566.476562 
	C108.837509,566.030640 215.738144,566.030640 322.673523,566.030640 
	C322.673523,487.111237 322.673523,408.612366 322.673523,330.000000 
	C215.219513,330.000000 108.109756,330.000000 1.000000,330.000000 
	C1.000000,220.333359 1.000000,110.666702 1.000000,1.000044 
	C329.666595,1.000029 658.333191,1.000029 986.999817,1.000015 
	C986.999878,234.333206 986.999878,467.666412 986.999939,700.999817 
	C659.833496,701.000000 332.667023,701.003967 5.500598,700.858765 
	C4.211260,700.858215 0.873054,703.328125 1.441313,698.329224 
	C37.468975,697.658386 73.055328,697.658386 108.186874,697.658386 
	C108.186874,685.043701 108.007675,673.062683 108.227936,661.088989 
	C108.578079,642.054077 121.746857,627.767639 140.793442,626.755737 
	C154.909622,626.005676 169.099976,626.526855 183.254181,626.714844 
	C186.355774,626.756042 189.595062,627.370422 192.513062,628.430603 
	C206.328033,633.449890 215.009628,645.779297 215.155930,660.471558 
	C215.278046,672.734192 215.180969,684.999023 215.180969,697.320801 
	C275.081055,697.320801 334.647980,697.320801 394.453125,697.320801 
	C394.453125,661.792175 394.453125,626.556274 394.453125,590.829407 
	C392.459625,590.829407 390.668915,590.829407 388.878204,590.829407 
	C261.247314,590.829407 133.616455,590.828735 5.985575,590.836426 
	C4.323713,590.836548 2.661857,590.943115 0.999999,591.000000 
M194.001297,155.500000 
	C194.000916,124.009102 194.097168,92.517807 193.967255,61.027443 
	C193.875961,38.897816 177.386932,20.917902 155.360306,19.793301 
	C139.072861,18.961721 122.716873,19.389568 106.391541,19.403997 
	C86.234451,19.421812 66.050591,18.980333 45.927834,19.864603 
	C24.579885,20.802713 8.013638,39.241913 8.007524,60.649437 
	C7.984637,140.792679 7.996786,220.935913 8.009413,301.079163 
	C8.009637,302.504395 8.179475,303.929596 8.273607,305.408844 
	C70.374786,305.408844 132.087265,305.408844 194.001297,305.408844 
	C194.001297,255.457291 194.001297,205.978653 194.001297,155.500000 
M519.676697,473.840240 
	C534.720886,485.315491 549.765076,496.790710 564.986694,508.401306 
	C565.747864,507.531952 566.308594,506.959991 566.792419,506.329041 
	C599.483582,463.698944 632.200439,421.088501 664.836487,378.416260 
	C676.148010,363.626251 688.496521,349.448761 698.256836,333.682495 
	C758.359741,236.595963 817.858337,139.135330 877.555969,41.797932 
	C882.856506,33.155350 888.155151,24.511555 893.430481,15.853622 
	C895.559753,12.359123 896.093628,8.762064 892.397278,6.110662 
	C888.826111,3.549068 885.478760,4.800312 882.676025,7.875944 
	C881.554382,9.106734 880.380432,10.289673 879.235840,11.499725 
	C810.773438,83.880394 742.171997,156.130432 673.935913,228.723907 
	C653.890442,250.049438 632.482361,270.121704 614.794250,293.668518 
	C588.224121,329.039246 561.110779,364.001892 534.229248,399.138641 
	C520.500427,417.083588 506.773346,435.029846 492.869263,453.205841 
	C501.775238,460.045013 510.453369,466.709229 519.676697,473.840240 
M351.535583,415.963104 
	C348.758942,415.963104 345.982330,415.963104 343.192932,415.963104 
	C343.192932,447.057098 343.192932,477.627960 343.192932,508.296631 
	C402.252899,508.296631 461.063934,508.296631 520.826416,508.296631 
	C497.323273,490.272858 474.571411,472.825165 451.617065,455.222229 
	C461.617188,442.159119 471.362457,429.428925 481.670868,415.963104 
	C438.003357,415.963104 395.266235,415.963104 351.535583,415.963104 
z"/>
<path fill="${headerColor}" opacity="1.000000" stroke="none" 
	d="
M1.000000,330.468658 
	C108.109756,330.000000 215.219513,330.000000 322.673523,330.000000 
	C322.673523,408.612366 322.673523,487.111237 322.673523,566.030640 
	C215.738144,566.030640 108.837509,566.030640 1.468439,566.015320 
	C1.000000,487.645782 1.000000,409.291534 1.000000,330.468658 
z"/>
<path fill="${headerColor}" opacity="1.000000" stroke="none" 
	d="
M0.999999,591.468628 
	C2.661857,590.943115 4.323713,590.836548 5.985575,590.836426 
	C133.616455,590.828735 261.247314,590.829407 388.878204,590.829407 
	C390.668915,590.829407 392.459625,590.829407 394.453125,590.829407 
	C394.453125,626.556274 394.453125,661.792175 394.453125,697.320801 
	C334.647980,697.320801 275.081055,697.320801 215.180969,697.320801 
	C215.180969,684.999023 215.278046,672.734192 215.155930,660.471558 
	C215.009628,645.779297 206.328033,633.449890 192.513062,628.430603 
	C189.595062,627.370422 186.355774,626.756042 183.254181,626.714844 
	C169.099976,626.526855 154.909622,626.005676 140.793442,626.755737 
	C121.746857,627.767639 108.578079,642.054077 108.227936,661.088989 
	C108.007675,673.062683 108.186874,685.043701 108.186874,697.658386 
	C73.055328,697.658386 37.468975,697.658386 1.441313,697.829224 
	C1.000000,662.645752 1.000000,627.291565 0.999999,591.468628 
z"/>
<path fill="${headerColor}" opacity="1.000000" stroke="none" 
	d="
M194.001297,156.000000 
	C194.001297,205.978653 194.001297,255.457291 194.001297,305.408844 
	C132.087265,305.408844 70.374786,305.408844 8.273607,305.408844 
	C8.179475,303.929596 8.009637,302.504395 8.009413,301.079163 
	C7.996786,220.935913 7.984637,140.792679 8.007524,60.649437 
	C8.013638,39.241913 24.579885,20.802713 45.927834,19.864603 
	C66.050591,18.980333 86.234451,19.421812 106.391541,19.403997 
	C122.716873,19.389568 139.072861,18.961721 155.360306,19.793301 
	C177.386932,20.917902 193.875961,38.897816 193.967255,61.027443 
	C194.097168,92.517807 194.000916,124.009102 194.001297,156.000000 
z"/>
<path fill="${headerColor}" opacity="1.000000" stroke="none" 
	d="
M519.404114,473.606842 
	C510.453369,466.709229 501.775238,460.045013 492.869263,453.205841 
	C506.773346,435.029846 520.500427,417.083588 534.229248,399.138641 
	C561.110779,364.001892 588.224121,329.039246 614.794250,293.668518 
	C632.482361,270.121704 653.890442,250.049438 673.935913,228.723907 
	C742.171997,156.130432 810.773438,83.880394 879.235840,11.499725 
	C880.380432,10.289673 881.554382,9.106734 882.676025,7.875944 
	C885.478760,4.800312 888.826111,3.549068 892.397278,6.110662 
	C896.093628,8.762064 895.559753,12.359123 893.430481,15.853622 
	C888.155151,24.511555 882.856506,33.155350 877.555969,41.797932 
	C817.858337,139.135330 758.359741,236.595963 698.256836,333.682495 
	C688.496521,349.448761 676.148010,363.626251 664.836487,378.416260 
	C632.200439,421.088501 599.483582,463.698944 566.792419,506.329041 
	C566.308594,506.959991 565.747864,507.531952 564.986694,508.401306 
	C549.765076,496.790710 534.720886,485.315491 519.404114,473.606842 
z"/>
<path fill="${headerColor}" opacity="1.000000" stroke="none" 
	d="
M352.032349,415.963104 
	C395.266235,415.963104 438.003357,415.963104 481.670868,415.963104 
	C471.362457,429.428925 461.617188,442.159119 451.617065,455.222229 
	C474.571411,472.825165 497.323273,490.272858 520.826416,508.296631 
	C461.063934,508.296631 402.252899,508.296631 343.192932,508.296631 
	C343.192932,477.627960 343.192932,447.057098 343.192932,415.963104 
	C345.982330,415.963104 348.758942,415.963104 352.032349,415.963104 
z"/>
</svg>