<svg version="1.1" id="Layer_1" xmlns="http://www.w3.org/2000/svg" xmlns:xlink="http://www.w3.org/1999/xlink" x="0px" y="0px"
	 width="100%" viewBox="0 0 347 921" enable-background="new 0 0 347 921" xml:space="preserve">
<path fill="none" opacity="1.000000" stroke="none" 
	d="
M1.000001,518.000000 
	C1.000000,345.706940 1.000000,173.413910 1.000000,1.060429 
	C116.599319,1.060429 232.198669,1.060429 347.899017,1.060429 
	C347.899017,307.999969 347.899017,615.000000 347.899017,922.000000 
	C233.777420,922.000000 119.637436,922.003845 5.497478,921.958557 
	C3.998195,921.957947 2.499157,921.333313 1.468430,920.515747 
	C30.358404,920.031433 58.779953,920.031433 87.306946,920.031433 
	C87.306946,897.710876 87.299240,876.050537 87.311478,854.390198 
	C87.315338,847.558350 88.017349,846.840027 94.654716,846.837280 
	C118.482925,846.827393 142.311127,846.828186 166.139343,846.836731 
	C172.778229,846.839111 173.298172,847.334167 173.304474,853.922485 
	C173.323776,874.084839 173.311203,894.247131 173.311035,914.409485 
	C173.311020,916.188293 173.311035,917.967163 173.311035,919.670715 
	C229.596039,919.670715 285.308319,919.670715 340.744904,919.670715 
	C340.744904,890.903503 340.744904,862.499939 340.744904,834.000000 
	C227.264267,834.000000 114.132133,834.000000 1.000000,834.000000 
	C1.000000,830.638123 1.000000,827.276306 1.468657,823.457520 
	C87.843330,823.000610 173.749344,823.000610 259.842224,823.000610 
	C259.842224,769.682129 259.842224,716.785645 259.842224,663.389343 
	C257.714569,663.389343 255.758240,663.389343 253.801910,663.389343 
	C171.511673,663.389343 89.221428,663.392029 6.931191,663.373047 
	C4.954099,663.372620 2.977063,663.129761 1.000000,663.000000 
	C1.000000,659.969055 1.000000,656.938049 1.468428,653.469238 
	C51.368107,653.031433 100.799355,653.031433 150.461334,653.031433 
	C150.553574,651.793274 150.664948,650.994873 150.665085,650.196472 
	C150.672623,608.388550 150.676819,566.580627 150.649307,524.772705 
	C150.648117,522.950073 150.438232,521.114075 150.170273,519.307373 
	C148.580475,508.587738 138.890625,500.013336 128.022949,499.992401 
	C93.204567,499.925293 58.384583,499.823151 23.569267,500.156830 
	C19.387938,500.196869 14.378906,501.836609 11.272152,504.503784 
	C7.077539,508.104980 4.354489,513.420227 1.000001,518.000000 
M321.115601,90.333710 
	C320.061310,67.198738 319.008545,44.063690 317.951569,20.928843 
	C317.705170,15.536206 315.736023,12.853653 311.757904,12.910234 
	C306.694183,12.982257 305.579468,16.553665 305.290527,20.708897 
	C304.747406,28.519495 304.236572,36.332565 303.646759,44.139656 
	C301.099487,77.856392 298.521423,111.570786 295.968109,145.287064 
	C293.515411,177.675415 291.087677,210.065628 288.633728,242.453888 
	C286.091736,276.004150 283.534058,309.553253 280.978363,343.102478 
	C278.789520,371.835175 276.561310,400.564941 274.411957,429.300568 
	C272.883850,449.730011 270.263855,470.162506 270.185608,490.601532 
	C269.767029,599.917480 269.993317,709.235962 270.008057,818.553528 
	C270.008240,819.984863 270.156342,821.416199 270.230743,822.763611 
	C293.543365,822.763611 316.473022,822.763611 339.817078,822.763611 
	C339.817078,820.741150 339.817078,818.949890 339.817078,817.158630 
	C339.817078,712.507019 339.817810,607.855408 339.815460,503.203827 
	C339.815308,496.207184 340.064911,489.197662 339.736755,482.215851 
	C336.607574,415.645050 333.357178,349.079987 330.184723,282.511169 
	C327.147034,218.771286 324.160492,155.028961 321.115601,90.333710 
z"/>
<path fill="${headerColor}" opacity="1.000000" stroke="none" 
	d="
M1.000000,663.468628 
	C2.977063,663.129761 4.954099,663.372620 6.931191,663.373047 
	C89.221428,663.392029 171.511673,663.389343 253.801910,663.389343 
	C255.758240,663.389343 257.714569,663.389343 259.842224,663.389343 
	C259.842224,716.785645 259.842224,769.682129 259.842224,823.000610 
	C173.749344,823.000610 87.843330,823.000610 1.468657,823.000305 
	C1.000000,769.979126 1.000000,716.958191 1.000000,663.468628 
z"/>
<path fill="${headerColor}" opacity="1.000000" stroke="none" 
	d="
M1.000000,834.468628 
	C114.132133,834.000000 227.264267,834.000000 340.744904,834.000000 
	C340.744904,862.499939 340.744904,890.903503 340.744904,919.670715 
	C285.308319,919.670715 229.596039,919.670715 173.311035,919.670715 
	C173.311035,917.967163 173.311020,916.188293 173.311035,914.409485 
	C173.311203,894.247131 173.323776,874.084839 173.304474,853.922485 
	C173.298172,847.334167 172.778229,846.839111 166.139343,846.836731 
	C142.311127,846.828186 118.482925,846.827393 94.654716,846.837280 
	C88.017349,846.840027 87.315338,847.558350 87.311478,854.390198 
	C87.299240,876.050537 87.306946,897.710876 87.306946,920.031433 
	C58.779953,920.031433 30.358404,920.031433 1.468428,920.015747 
	C1.000000,891.645752 1.000000,863.291565 1.000000,834.468628 
z"/>
<path fill="${headerColor}" opacity="1.000000" stroke="none" 
	d="
M1.000001,518.468628 
	C4.354489,513.420227 7.077539,508.104980 11.272152,504.503784 
	C14.378906,501.836609 19.387938,500.196869 23.569267,500.156830 
	C58.384583,499.823151 93.204567,499.925293 128.022949,499.992401 
	C138.890625,500.013336 148.580475,508.587738 150.170273,519.307373 
	C150.438232,521.114075 150.648117,522.950073 150.649307,524.772705 
	C150.676819,566.580627 150.672623,608.388550 150.665085,650.196472 
	C150.664948,650.994873 150.553574,651.793274 150.461334,653.031433 
	C100.799355,653.031433 51.368107,653.031433 1.468428,653.015747 
	C1.000000,608.312439 1.000000,563.624878 1.000001,518.468628 
z"/>
<path fill="${headerColor}" opacity="1.000000" stroke="none" 
	d="
M321.133545,90.810707 
	C324.160492,155.028961 327.147034,218.771286 330.184723,282.511169 
	C333.357178,349.079987 336.607574,415.645050 339.736755,482.215851 
	C340.064911,489.197662 339.815308,496.207184 339.815460,503.203827 
	C339.817810,607.855408 339.817078,712.507019 339.817078,817.158630 
	C339.817078,818.949890 339.817078,820.741150 339.817078,822.763611 
	C316.473022,822.763611 293.543365,822.763611 270.230743,822.763611 
	C270.156342,821.416199 270.008240,819.984863 270.008057,818.553528 
	C269.993317,709.235962 269.767029,599.917480 270.185608,490.601532 
	C270.263855,470.162506 272.883850,449.730011 274.411957,429.300568 
	C276.561310,400.564941 278.789520,371.835175 280.978363,343.102478 
	C283.534058,309.553253 286.091736,276.004150 288.633728,242.453888 
	C291.087677,210.065628 293.515411,177.675415 295.968109,145.287064 
	C298.521423,111.570786 301.099487,77.856392 303.646759,44.139656 
	C304.236572,36.332565 304.747406,28.519495 305.290527,20.708897 
	C305.579468,16.553665 306.694183,12.982257 311.757904,12.910234 
	C315.736023,12.853653 317.705170,15.536206 317.951569,20.928843 
	C319.008545,44.063690 320.061310,67.198738 321.133545,90.810707 
z"/>
</svg>