<svg version="1.1" id="Layer_1" xmlns="http://www.w3.org/2000/svg" xmlns:xlink="http://www.w3.org/1999/xlink" x="0px" y="0px"
	 width="100%" viewBox="0 0 986 700" enable-background="new 0 0 986 700" xml:space="preserve">
<path fill="none" opacity="1.000000" stroke="none" 
	d="
M1.000001,218.000000 
	C1.000000,145.679108 1.000000,73.358200 1.000000,1.018651 
	C329.597748,1.018651 658.195496,1.018651 986.896606,1.018651 
	C986.896606,234.224243 986.896606,467.448547 986.896606,701.000000 
	C794.975220,701.000000 602.950256,701.000000 410.645874,700.562866 
	C410.382141,650.962646 410.587067,601.798706 410.348083,552.636841 
	C410.183990,518.882019 394.328491,494.774231 363.967651,480.177063 
	C353.220306,475.009827 341.749481,473.770905 329.956299,473.789764 
	C256.295074,473.907471 182.633667,473.894958 108.972313,473.930634 
	C72.981544,473.948090 36.990772,473.976501 1.000000,474.000000 
	C1.000000,464.975098 1.000000,455.950195 1.463284,446.538635 
	C72.167175,446.152008 142.407776,446.152008 213.035202,446.152008 
	C213.035202,444.776154 213.035248,443.816162 213.035187,442.856171 
	C213.029861,370.060333 213.081207,297.264465 212.984787,224.468750 
	C212.955734,202.535660 194.131409,184.083405 171.833389,184.030350 
	C128.689072,183.927719 85.544266,183.951736 42.399826,184.023682 
	C24.484451,184.053543 8.386765,196.090118 2.979175,213.138855 
	C2.451897,214.801239 1.665905,216.381577 1.000001,218.000000 
M680.141846,8.389359 
	C621.291077,70.601028 562.332092,132.710876 503.651764,195.082855 
	C484.620789,215.311081 465.639679,235.659500 447.875519,256.985626 
	C430.112762,278.310059 413.900665,300.926178 397.009033,322.976257 
	C383.253815,340.932190 369.447968,358.849640 355.762970,376.858948 
	C347.604095,387.595978 349.394226,402.928436 359.607819,410.842407 
	C367.758240,417.157684 375.938568,423.435577 384.169739,429.645081 
	C396.410156,438.879150 410.792725,436.885803 420.153320,424.696045 
	C442.742188,395.280121 465.341919,365.872467 487.878632,336.416656 
	C499.491547,321.238434 512.140808,306.697632 522.304382,290.595428 
	C552.022766,243.512329 580.734680,195.793777 609.827271,148.315842 
	C636.574402,104.665504 663.289795,60.995636 690.067993,17.364340 
	C692.182556,13.918947 693.280396,10.532080 689.971802,7.455201 
	C686.959778,4.654073 683.667847,4.906575 680.141846,8.389359 
M294.500244,363.378845 
	C285.509979,363.379761 276.517426,363.250549 267.530029,363.411560 
	C253.446396,363.663849 243.065933,374.237000 243.004120,388.233978 
	C242.959274,398.389465 242.992142,408.545288 242.995712,418.700958 
	C243.001434,434.997070 253.030258,445.124512 269.380524,445.155121 
	C298.349060,445.209320 327.317749,445.175354 356.286377,445.156250 
	C357.462280,445.155487 358.638062,444.930542 360.447540,444.745117 
	C346.633789,434.137177 333.428131,424.067749 320.326385,413.864838 
	C318.135101,412.158295 316.017303,410.118317 314.514038,407.810059 
	C308.941437,399.253540 309.486542,388.015808 315.615387,379.779724 
	C319.506744,374.550385 323.463409,369.369629 327.985779,363.378876 
	C316.379272,363.378876 305.939789,363.378876 294.500244,363.378845 
z"/>
<path fill="currentColor" opacity="1.000000" stroke="none" 
	d="
M1.000000,474.468628 
	C36.990772,473.976501 72.981544,473.948090 108.972313,473.930634 
	C182.633667,473.894958 256.295074,473.907471 329.956299,473.789764 
	C341.749481,473.770905 353.220306,475.009827 363.967651,480.177063 
	C394.328491,494.774231 410.183990,518.882019 410.348083,552.636841 
	C410.587067,601.798706 410.382141,650.962646 410.183228,700.562866 
	C373.645782,701.000000 337.291534,701.000000 300.589600,700.544983 
	C300.249390,683.257996 300.349976,666.425415 300.232178,649.594360 
	C300.151825,638.114502 292.915955,631.022278 281.424103,631.014282 
	C231.594559,630.979431 181.764984,630.985413 131.935425,631.009277 
	C119.803360,631.015076 112.629921,637.949646 112.497398,650.093384 
	C112.331909,665.257141 112.471016,680.424072 112.434853,695.589478 
	C112.430557,697.393311 112.151634,699.196533 112.000000,701.000000 
	C75.047943,701.000000 38.095886,701.000000 1.000000,701.000000 
	C1.000000,625.645813 1.000000,550.291565 1.000000,474.468628 
z"/>
<path fill="currentColor" opacity="1.000000" stroke="none" 
	d="
M1.000001,218.468658 
	C1.665905,216.381577 2.451897,214.801239 2.979175,213.138855 
	C8.386765,196.090118 24.484451,184.053543 42.399826,184.023682 
	C85.544266,183.951736 128.689072,183.927719 171.833389,184.030350 
	C194.131409,184.083405 212.955734,202.535660 212.984787,224.468750 
	C213.081207,297.264465 213.029861,370.060333 213.035187,442.856171 
	C213.035248,443.816162 213.035202,444.776154 213.035202,446.152008 
	C142.407776,446.152008 72.167175,446.152008 1.463284,446.075989 
	C1.000000,370.312439 1.000000,294.624878 1.000001,218.468658 
z"/>
<path fill="none" opacity="1.000000" stroke="none" 
	d="
M112.468658,701.000000 
	C112.151634,699.196533 112.430557,697.393311 112.434853,695.589478 
	C112.471016,680.424072 112.331909,665.257141 112.497398,650.093384 
	C112.629921,637.949646 119.803360,631.015076 131.935425,631.009277 
	C181.764984,630.985413 231.594559,630.979431 281.424103,631.014282 
	C292.915955,631.022278 300.151825,638.114502 300.232178,649.594360 
	C300.349976,666.425415 300.249390,683.257996 300.120941,700.544983 
	C237.645767,701.000000 175.291550,701.000000 112.468658,701.000000 
z"/>
<path fill="currentColor" opacity="1.000000" stroke="none" 
	d="
M680.426270,8.137588 
	C683.667847,4.906575 686.959778,4.654073 689.971802,7.455201 
	C693.280396,10.532080 692.182556,13.918947 690.067993,17.364340 
	C663.289795,60.995636 636.574402,104.665504 609.827271,148.315842 
	C580.734680,195.793777 552.022766,243.512329 522.304382,290.595428 
	C512.140808,306.697632 499.491547,321.238434 487.878632,336.416656 
	C465.341919,365.872467 442.742188,395.280121 420.153320,424.696045 
	C410.792725,436.885803 396.410156,438.879150 384.169739,429.645081 
	C375.938568,423.435577 367.758240,417.157684 359.607819,410.842407 
	C349.394226,402.928436 347.604095,387.595978 355.762970,376.858948 
	C369.447968,358.849640 383.253815,340.932190 397.009033,322.976257 
	C413.900665,300.926178 430.112762,278.310059 447.875519,256.985626 
	C465.639679,235.659500 484.620789,215.311081 503.651764,195.082855 
	C562.332092,132.710876 621.291077,70.601028 680.426270,8.137588 
z"/>
<path fill="currentColor" opacity="1.000000" stroke="none" 
	d="
M295.000244,363.378845 
	C305.939789,363.378876 316.379272,363.378876 327.985779,363.378876 
	C323.463409,369.369629 319.506744,374.550385 315.615387,379.779724 
	C309.486542,388.015808 308.941437,399.253540 314.514038,407.810059 
	C316.017303,410.118317 318.135101,412.158295 320.326385,413.864838 
	C333.428131,424.067749 346.633789,434.137177 360.447540,444.745117 
	C358.638062,444.930542 357.462280,445.155487 356.286377,445.156250 
	C327.317749,445.175354 298.349060,445.209320 269.380524,445.155121 
	C253.030258,445.124512 243.001434,434.997070 242.995712,418.700958 
	C242.992142,408.545288 242.959274,398.389465 243.004120,388.233978 
	C243.065933,374.237000 253.446396,363.663849 267.530029,363.411560 
	C276.517426,363.250549 285.509979,363.379761 295.000244,363.378845 
z"/>
</svg>