<svg version="1.1" id="Layer_1" xmlns="http://www.w3.org/2000/svg" xmlns:xlink="http://www.w3.org/1999/xlink" x="0px" y="0px"
	 width="100%" viewBox="0 0 986 700" enable-background="new 0 0 986 700" xml:space="preserve">
<path fill="none" opacity="1.000000" stroke="none" 
	d="
M1.000000,587.000000 
	C1.000000,580.641724 1.000000,574.283508 1.468440,567.477905 
	C111.492897,567.030640 221.048920,567.030640 330.642944,567.030640 
	C330.642944,503.427246 330.642944,440.254486 330.642944,377.000000 
	C220.534836,377.000000 110.767418,377.000000 1.000000,377.000000 
	C1.000000,371.974792 1.000000,366.949585 1.463256,361.538391 
	C65.008171,361.152405 128.089828,361.152405 191.754532,361.152405 
	C191.754532,345.746124 191.793747,330.935608 191.746460,316.125336 
	C191.644379,284.144226 191.498383,252.163254 191.367432,220.182251 
	C191.363342,219.182831 191.343033,218.182922 191.303726,217.184296 
	C190.427933,194.927094 173.144409,177.340424 150.911972,177.129868 
	C114.593552,176.785904 78.268456,176.861908 41.948372,177.098007 
	C23.723305,177.216476 8.288802,189.276657 2.876509,206.644272 
	C2.408735,208.145325 1.632793,209.550369 0.999999,211.000000 
	C1.000000,141.000031 1.000000,71.000053 1.000000,1.000056 
	C329.666534,1.000038 658.333069,1.000038 986.999634,1.000019 
	C986.999756,234.333115 986.999756,467.666229 986.999878,700.999512 
	C658.333679,700.999634 329.667358,700.999634 1.000515,700.999817 
	C1.000000,700.000000 1.000000,699.000000 1.441113,697.328613 
	C38.152996,696.657166 74.423767,696.657166 110.966354,696.657166 
	C110.966354,682.878662 110.945061,669.731934 110.972771,656.585388 
	C110.997108,645.036743 118.036064,637.873596 129.499069,637.850830 
	C153.158630,637.803955 176.834503,638.357300 200.471558,637.626160 
	C213.290649,637.229553 220.973724,646.675720 220.638290,657.641296 
	C220.292053,668.960632 220.562744,680.298889 220.563522,691.628845 
	C220.563629,693.218750 220.563538,694.808655 220.563538,696.382324 
	C282.090302,696.382324 342.858307,696.382324 403.708160,696.382324 
	C403.708160,659.793823 403.708160,623.436340 403.708160,587.000000 
	C269.238556,587.000000 135.119278,587.000000 1.000000,587.000000 
M799.297791,117.824333 
	C812.774353,95.864609 826.256592,73.908386 839.725281,51.943829 
	C847.285645,39.614353 854.824768,27.271845 862.370544,14.933425 
	C864.498474,11.453889 864.259705,8.245307 860.973328,5.658000 
	C857.728516,3.103382 854.716919,4.260369 852.011597,6.711639 
	C850.657166,7.938840 849.462708,9.343322 848.204041,10.675364 
	C776.451599,86.610832 704.607727,162.460175 633.009644,238.540894 
	C613.747253,259.009308 594.211731,279.359253 576.607178,301.217712 
	C548.131409,336.574280 521.149048,373.133667 493.538483,409.186981 
	C479.421204,427.621124 465.309265,446.059387 451.023132,464.720154 
	C475.802490,483.659912 500.322998,502.401794 524.883484,521.174255 
	C525.504456,520.454956 525.839294,520.104187 526.132935,519.721741 
	C560.064880,475.517181 594.023071,431.332703 627.906677,387.091034 
	C639.330078,372.175507 651.794678,357.879852 661.673889,341.989380 
	C707.839111,267.734009 753.267273,193.020401 799.297791,117.824333 
M380.499939,521.171082 
	C413.043335,521.171082 445.586731,521.171082 479.484650,521.171082 
	C455.215332,502.562347 432.076599,484.820526 408.787079,466.963043 
	C419.075317,453.480133 429.139618,440.290710 439.554993,426.641174 
	C409.422516,426.641174 380.343262,426.641174 351.224487,426.641174 
	C351.224487,458.270325 351.224487,489.642822 351.224487,521.171082 
	C360.868683,521.171082 370.184265,521.171082 380.499939,521.171082 
z"/>
<path fill="currentColor" opacity="1.000000" stroke="none" 
	d="
M1.000000,377.468658 
	C110.767418,377.000000 220.534836,377.000000 330.642944,377.000000 
	C330.642944,440.254486 330.642944,503.427246 330.642944,567.030640 
	C221.048920,567.030640 111.492897,567.030640 1.468440,567.015320 
	C1.000000,503.979095 1.000000,440.958221 1.000000,377.468658 
z"/>
<path fill="currentColor" opacity="1.000000" stroke="none" 
	d="
M1.000000,587.468628 
	C135.119278,587.000000 269.238556,587.000000 403.708160,587.000000 
	C403.708160,623.436340 403.708160,659.793823 403.708160,696.382324 
	C342.858307,696.382324 282.090302,696.382324 220.563538,696.382324 
	C220.563538,694.808655 220.563629,693.218750 220.563522,691.628845 
	C220.562744,680.298889 220.292053,668.960632 220.638290,657.641296 
	C220.973724,646.675720 213.290649,637.229553 200.471558,637.626160 
	C176.834503,638.357300 153.158630,637.803955 129.499069,637.850830 
	C118.036064,637.873596 110.997108,645.036743 110.972771,656.585388 
	C110.945061,669.731934 110.966354,682.878662 110.966354,696.657166 
	C74.423767,696.657166 38.152996,696.657166 1.441113,696.828613 
	C1.000000,660.645752 1.000000,624.291565 1.000000,587.468628 
z"/>
<path fill="currentColor" opacity="1.000000" stroke="none" 
	d="
M0.999999,211.468658 
	C1.632793,209.550369 2.408735,208.145325 2.876509,206.644272 
	C8.288802,189.276657 23.723305,177.216476 41.948372,177.098007 
	C78.268456,176.861908 114.593552,176.785904 150.911972,177.129868 
	C173.144409,177.340424 190.427933,194.927094 191.303726,217.184296 
	C191.343033,218.182922 191.363342,219.182831 191.367432,220.182251 
	C191.498383,252.163254 191.644379,284.144226 191.746460,316.125336 
	C191.793747,330.935608 191.754532,345.746124 191.754532,361.152405 
	C128.089828,361.152405 65.008171,361.152405 1.463256,361.076202 
	C1.000000,311.312439 1.000000,261.624878 0.999999,211.468658 
z"/>
<path fill="currentColor" opacity="1.000000" stroke="none" 
	d="
M799.128296,118.147446 
	C753.267273,193.020401 707.839111,267.734009 661.673889,341.989380 
	C651.794678,357.879852 639.330078,372.175507 627.906677,387.091034 
	C594.023071,431.332703 560.064880,475.517181 526.132935,519.721741 
	C525.839294,520.104187 525.504456,520.454956 524.883484,521.174255 
	C500.322998,502.401794 475.802490,483.659912 451.023132,464.720154 
	C465.309265,446.059387 479.421204,427.621124 493.538483,409.186981 
	C521.149048,373.133667 548.131409,336.574280 576.607178,301.217712 
	C594.211731,279.359253 613.747253,259.009308 633.009644,238.540894 
	C704.607727,162.460175 776.451599,86.610832 848.204041,10.675364 
	C849.462708,9.343322 850.657166,7.938840 852.011597,6.711639 
	C854.716919,4.260369 857.728516,3.103382 860.973328,5.658000 
	C864.259705,8.245307 864.498474,11.453889 862.370544,14.933425 
	C854.824768,27.271845 847.285645,39.614353 839.725281,51.943829 
	C826.256592,73.908386 812.774353,95.864609 799.128296,118.147446 
z"/>
<path fill="currentColor" opacity="1.000000" stroke="none" 
	d="
M379.999908,521.171082 
	C370.184265,521.171082 360.868683,521.171082 351.224487,521.171082 
	C351.224487,489.642822 351.224487,458.270325 351.224487,426.641174 
	C380.343262,426.641174 409.422516,426.641174 439.554993,426.641174 
	C429.139618,440.290710 419.075317,453.480133 408.787079,466.963043 
	C432.076599,484.820526 455.215332,502.562347 479.484650,521.171082 
	C445.586731,521.171082 413.043335,521.171082 379.999908,521.171082 
z"/>
</svg>