<svg version="1.1" id="Layer_1" xmlns="http://www.w3.org/2000/svg" xmlns:xlink="http://www.w3.org/1999/xlink" x="0px" y="0px"
	 width="100%" viewBox="0 0 986 700" enable-background="new 0 0 986 700" xml:space="preserve">
<path fill="none" opacity="1.000000" stroke="none" 
	d="
M0.999999,153.000000 
	C1.000000,102.355713 1.000000,51.711422 1.000000,1.000000 
	C277.688690,1.000000 554.377380,1.000000 831.437378,1.323242 
	C830.138611,3.266090 828.404846,4.825602 826.807312,6.513905 
	C757.173462,80.103767 687.388611,153.551910 618.026489,227.397064 
	C596.851746,249.940414 574.220703,271.125397 555.423645,295.934631 
	C516.151001,347.768311 476.313446,399.173767 436.737640,450.777954 
	C431.613068,457.460083 432.495697,463.655487 439.253967,468.860291 
	C456.651428,482.258667 474.086426,495.608307 491.518402,508.961761 
	C499.831451,515.329834 505.397980,514.521973 511.800354,506.155212 
	C536.261780,474.188446 560.938721,442.384216 585.155884,410.233582 
	C609.639832,377.728851 635.423157,346.250793 656.635559,311.257202 
	C716.870422,211.889160 777.967285,113.043610 838.723145,13.991403 
	C842.768311,7.396501 842.655945,5.484344 838.000000,1.000000 
	C887.651611,1.000000 937.303223,1.000000 986.977417,1.000000 
	C986.977417,234.247513 986.977417,467.495026 986.977417,701.000000 
	C792.978088,701.000000 598.955994,701.000000 404.493134,700.531982 
	C404.052307,663.817993 404.052307,627.572021 404.052307,591.000000 
	C269.385773,591.000000 135.192886,591.000000 1.000000,591.000000 
	C1.000000,582.644653 1.000000,574.289307 1.463289,565.542969 
	C111.512321,565.151978 221.098068,565.151978 330.742035,565.151978 
	C330.742035,557.204834 330.742035,549.790710 330.742035,542.033752 
	C328.874908,542.033752 327.244873,542.033813 325.614838,542.033752 
	C301.783661,542.033752 277.952484,542.036011 254.121307,542.032593 
	C243.741119,542.031128 240.227051,538.462463 240.225708,527.899048 
	C240.220886,490.069122 240.222244,452.239227 240.224762,414.409302 
	C240.225464,403.774414 243.583771,400.401459 254.311264,400.391052 
	C277.975769,400.368103 301.640320,400.383850 325.304840,400.383820 
	C327.079315,400.383820 328.853821,400.383881 330.694214,400.383881 
	C330.694214,391.683502 330.694214,383.452301 330.694214,375.000000 
	C220.603226,375.000000 110.801613,375.000000 1.000000,375.000000 
	C1.000000,368.644592 1.000000,362.289185 1.468427,355.482605 
	C65.021408,355.031464 128.105957,355.031464 191.373367,355.031464 
	C191.373367,352.661560 191.373367,350.841064 191.373367,349.020569 
	C191.373367,299.891327 191.386917,250.762100 191.365158,201.632874 
	C191.358597,186.808350 191.644989,171.969376 191.096802,157.162964 
	C190.388626,138.035599 173.642746,121.220398 154.605896,119.788818 
	C151.122391,119.526848 147.620071,119.395988 144.126755,119.401550 
	C109.313934,119.456924 74.490112,119.061455 39.693027,119.844048 
	C22.003109,120.241890 10.231999,130.555649 3.653352,146.825989 
	C2.813882,148.902176 1.886600,150.942871 0.999999,153.000000 
M396.563293,431.009338 
	C398.189545,428.848816 399.815796,426.688324 401.965912,423.831848 
	C399.926300,423.831848 398.959961,423.831848 397.993622,423.831848 
	C369.008209,423.831879 340.022675,423.786469 311.037415,423.852142 
	C297.672516,423.882446 287.044556,434.587006 286.984863,447.995697 
	C286.915161,463.654175 286.948944,479.313293 287.001282,494.971924 
	C287.007294,496.776367 287.208496,498.636230 287.677032,500.373932 
	C290.777985,511.874817 300.574738,518.973938 313.499695,518.986267 
	C353.979309,519.024963 394.458984,519.000488 434.938629,519.000427 
	C436.520203,519.000427 438.101746,519.000427 440.705200,519.000427 
	C439.032593,517.569519 438.238861,516.822083 437.377258,516.163452 
	C418.354370,501.621674 399.318115,487.097473 380.297974,472.552246 
	C372.908600,466.901367 372.343842,462.726105 377.942200,455.355621 
	C383.976013,447.411835 390.035248,439.487366 396.563293,431.009338 
z"/>
<path fill="currentColor" opacity="1.000000" stroke="none" 
	d="
M1.000000,375.468658 
	C110.801613,375.000000 220.603226,375.000000 330.694214,375.000000 
	C330.694214,383.452301 330.694214,391.683502 330.694214,400.383881 
	C328.853821,400.383881 327.079315,400.383820 325.304840,400.383820 
	C301.640320,400.383850 277.975769,400.368103 254.311264,400.391052 
	C243.583771,400.401459 240.225464,403.774414 240.224762,414.409302 
	C240.222244,452.239227 240.220886,490.069122 240.225708,527.899048 
	C240.227051,538.462463 243.741119,542.031128 254.121307,542.032593 
	C277.952484,542.036011 301.783661,542.033752 325.614838,542.033752 
	C327.244873,542.033813 328.874908,542.033752 330.742035,542.033752 
	C330.742035,549.790710 330.742035,557.204834 330.742035,565.151978 
	C221.098068,565.151978 111.512321,565.151978 1.463289,565.075989 
	C1.000000,501.979095 1.000000,438.958221 1.000000,375.468658 
z"/>
<path fill="currentColor" opacity="1.000000" stroke="none" 
	d="
M0.999999,153.468658 
	C1.886600,150.942871 2.813882,148.902176 3.653352,146.825989 
	C10.231999,130.555649 22.003109,120.241890 39.693027,119.844048 
	C74.490112,119.061455 109.313934,119.456924 144.126755,119.401550 
	C147.620071,119.395988 151.122391,119.526848 154.605896,119.788818 
	C173.642746,121.220398 190.388626,138.035599 191.096802,157.162964 
	C191.644989,171.969376 191.358597,186.808350 191.365158,201.632874 
	C191.386917,250.762100 191.373367,299.891327 191.373367,349.020569 
	C191.373367,350.841064 191.373367,352.661560 191.373367,355.031464 
	C128.105957,355.031464 65.021408,355.031464 1.468427,355.015747 
	C1.000000,287.979095 1.000000,220.958206 0.999999,153.468658 
z"/>
<path fill="currentColor" opacity="1.000000" stroke="none" 
	d="
M837.571533,1.000000 
	C842.655945,5.484344 842.768311,7.396501 838.723145,13.991403 
	C777.967285,113.043610 716.870422,211.889160 656.635559,311.257202 
	C635.423157,346.250793 609.639832,377.728851 585.155884,410.233582 
	C560.938721,442.384216 536.261780,474.188446 511.800354,506.155212 
	C505.397980,514.521973 499.831451,515.329834 491.518402,508.961761 
	C474.086426,495.608307 456.651428,482.258667 439.253967,468.860291 
	C432.495697,463.655487 431.613068,457.460083 436.737640,450.777954 
	C476.313446,399.173767 516.151001,347.768311 555.423645,295.934631 
	C574.220703,271.125397 596.851746,249.940414 618.026489,227.397064 
	C687.388611,153.551910 757.173462,80.103767 826.807312,6.513905 
	C828.404846,4.825602 830.138611,3.266090 831.904419,1.323242 
	C833.714355,1.000000 835.428711,1.000000 837.571533,1.000000 
z"/>
<path fill="currentColor" opacity="1.000000" stroke="none" 
	d="
M1.000000,591.468628 
	C135.192886,591.000000 269.385773,591.000000 404.052307,591.000000 
	C404.052307,627.572021 404.052307,663.817993 404.026154,700.531982 
	C374.979095,701.000000 345.958221,701.000000 316.568054,700.540588 
	C316.205811,683.595459 316.262878,667.109558 316.203705,650.624084 
	C316.157623,637.785217 309.305389,631.010193 296.448700,631.006653 
	C241.329636,630.991211 186.210571,630.992981 131.091507,631.005249 
	C118.208008,631.008118 111.028389,638.173462 111.006920,651.043152 
	C110.979134,667.695374 111.000053,684.347717 111.000000,701.000000 
	C74.406387,701.000000 37.812767,701.000000 1.000000,701.000000 
	C1.000000,664.646057 1.000000,628.291687 1.000000,591.468628 
z"/>
<path fill="none" opacity="1.000000" stroke="none" 
	d="
M111.468658,701.000000 
	C111.000053,684.347717 110.979134,667.695374 111.006920,651.043152 
	C111.028389,638.173462 118.208008,631.008118 131.091507,631.005249 
	C186.210571,630.992981 241.329636,630.991211 296.448700,631.006653 
	C309.305389,631.010193 316.157623,637.785217 316.203705,650.624084 
	C316.262878,667.109558 316.205811,683.595459 316.099426,700.540588 
	C247.979111,701.000000 179.958206,701.000000 111.468658,701.000000 
z"/>
<path fill="currentColor" opacity="1.000000" stroke="none" 
	d="
M396.323364,431.281921 
	C390.035248,439.487366 383.976013,447.411835 377.942200,455.355621 
	C372.343842,462.726105 372.908600,466.901367 380.297974,472.552246 
	C399.318115,487.097473 418.354370,501.621674 437.377258,516.163452 
	C438.238861,516.822083 439.032593,517.569519 440.705200,519.000427 
	C438.101746,519.000427 436.520203,519.000427 434.938629,519.000427 
	C394.458984,519.000488 353.979309,519.024963 313.499695,518.986267 
	C300.574738,518.973938 290.777985,511.874817 287.677032,500.373932 
	C287.208496,498.636230 287.007294,496.776367 287.001282,494.971924 
	C286.948944,479.313293 286.915161,463.654175 286.984863,447.995697 
	C287.044556,434.587006 297.672516,423.882446 311.037415,423.852142 
	C340.022675,423.786469 369.008209,423.831879 397.993622,423.831848 
	C398.959961,423.831848 399.926300,423.831848 401.965912,423.831848 
	C399.815796,426.688324 398.189545,428.848816 396.323364,431.281921 
z"/>
</svg>