<svg version="1.1" id="Layer_1" xmlns="http://www.w3.org/2000/svg" xmlns:xlink="http://www.w3.org/1999/xlink" x="0px" y="0px"
	 width="100%" viewBox="0 0 986 700" enable-background="new 0 0 986 700" xml:space="preserve">
<path fill="none" opacity="1.000000" stroke="none" 
	d="
M1.000000,212.000000 
	C1.000000,141.678650 1.000000,71.357285 1.000000,1.017966 
	C329.598724,1.017966 658.197449,1.017966 986.898071,1.017966 
	C986.898071,234.225601 986.898071,467.451263 986.898071,701.000000 
	C784.975220,701.000000 582.950256,701.000000 380.533203,700.536011 
	C380.145630,642.768311 380.152954,585.464661 380.152588,528.161011 
	C380.152496,515.666382 380.111877,503.171722 380.115234,490.677094 
	C380.117035,483.951782 377.948029,477.964844 374.053650,472.556519 
	C366.473663,462.029724 355.911926,458.311615 343.281891,458.326813 
	C254.318970,458.433777 165.355865,458.384583 76.392815,458.380981 
	C67.900009,458.380646 59.407063,458.376373 50.914433,458.328949 
	C34.276196,458.236084 17.638134,458.111450 1.000000,458.000000 
	C1.000000,450.308441 1.000000,442.616852 1.440836,434.290405 
	C70.263092,433.655487 138.644516,433.655487 207.751053,433.655487 
	C207.751053,417.946594 207.777725,402.977417 207.746277,388.008362 
	C207.630463,332.881226 207.495956,277.754089 207.364532,222.626938 
	C207.360962,221.128143 207.333389,219.628723 207.281693,218.130798 
	C206.518341,196.010025 189.106155,178.304840 166.868546,178.130630 
	C125.226471,177.804428 83.579216,177.874130 41.935844,178.099045 
	C23.719389,178.197418 8.286754,190.280807 2.875731,207.644547 
	C2.408004,209.145462 1.632525,210.550446 1.000000,212.000000 
M915.643555,168.144684 
	C932.922363,139.936096 950.200012,111.726799 967.480957,83.519524 
	C971.475403,76.999420 975.416931,70.445534 979.506592,63.985580 
	C981.847412,60.287979 983.132935,56.717300 979.229065,53.326504 
	C976.094543,50.603928 972.773254,51.449219 968.525635,55.843002 
	C967.599182,56.801380 966.669922,57.757179 965.753967,58.725571 
	C885.384277,143.704224 804.890442,228.566101 724.737183,313.748444 
	C705.258850,334.448914 684.646423,354.066223 667.427612,376.955017 
	C627.734985,429.718201 587.245178,481.881500 547.118896,534.318909 
	C538.172729,546.009766 540.023376,560.763733 551.555603,569.683472 
	C564.711365,579.858887 577.941895,589.939026 591.216003,599.959717 
	C604.109558,609.693115 618.121277,607.724304 627.870483,595.003296 
	C660.144348,552.891052 692.447815,510.801575 724.708557,468.679352 
	C736.233215,453.631805 748.978149,439.328247 758.925110,423.294800 
	C811.415039,338.686371 863.189453,253.634064 915.643555,168.144684 
M420.952148,516.277832 
	C412.860168,521.642090 408.733154,528.953857 408.869659,538.887390 
	C409.105499,556.046936 408.915833,573.212158 408.943542,590.374878 
	C408.967896,605.474243 419.553314,615.991028 434.729218,615.996155 
	C473.887054,616.009460 513.044922,616.000488 552.202759,616.000488 
	C553.595459,616.000488 554.988159,616.000488 557.506592,616.000488 
	C534.596802,598.436829 512.728699,581.656738 490.841797,564.901123 
	C484.008423,559.669861 483.325165,555.338379 488.547058,548.446960 
	C496.682434,537.710632 504.903961,527.039612 513.070557,516.326843 
	C513.784851,515.389832 514.361938,514.348206 515.254028,512.965881 
	C487.866333,512.965881 461.205902,512.833801 434.549408,513.099060 
	C430.231415,513.142029 425.931000,514.948486 420.952148,516.277832 
z"/>
<path fill="currentColor" opacity="1.000000" stroke="none" 
	d="
M1.000000,458.468658 
	C17.638134,458.111450 34.276196,458.236084 50.914433,458.328949 
	C59.407063,458.376373 67.900009,458.380646 76.392815,458.380981 
	C165.355865,458.384583 254.318970,458.433777 343.281891,458.326813 
	C355.911926,458.311615 366.473663,462.029724 374.053650,472.556519 
	C377.948029,477.964844 380.117035,483.951782 380.115234,490.677094 
	C380.111877,503.171722 380.152496,515.666382 380.152588,528.161011 
	C380.152954,585.464661 380.145630,642.768311 380.070557,700.536011 
	C348.312439,701.000000 316.624878,701.000000 284.483704,700.531555 
	C284.030762,683.070496 283.531006,666.058167 284.196503,649.091675 
	C284.694489,636.394409 274.605804,628.698792 264.121765,628.850525 
	C234.474182,629.279907 204.816360,629.000244 175.162567,629.000916 
	C160.002502,629.001282 144.841888,628.927002 129.682556,629.032715 
	C120.022011,629.100098 112.055649,636.098755 111.962860,645.041748 
	C111.769356,663.692383 111.964523,682.346985 112.000000,701.000000 
	C75.045769,701.000000 38.091545,701.000000 1.000000,701.000000 
	C1.000000,620.312500 1.000000,539.624878 1.000000,458.468658 
z"/>
<path fill="currentColor" opacity="1.000000" stroke="none" 
	d="
M1.000000,212.468658 
	C1.632525,210.550446 2.408004,209.145462 2.875731,207.644547 
	C8.286754,190.280807 23.719389,178.197418 41.935844,178.099045 
	C83.579216,177.874130 125.226471,177.804428 166.868546,178.130630 
	C189.106155,178.304840 206.518341,196.010025 207.281693,218.130798 
	C207.333389,219.628723 207.360962,221.128143 207.364532,222.626938 
	C207.495956,277.754089 207.630463,332.881226 207.746277,388.008362 
	C207.777725,402.977417 207.751053,417.946594 207.751053,433.655487 
	C138.644516,433.655487 70.263092,433.655487 1.440836,433.827759 
	C1.000000,360.312439 1.000000,286.624878 1.000000,212.468658 
z"/>
<path fill="none" opacity="1.000000" stroke="none" 
	d="
M112.468658,701.000000 
	C111.964523,682.346985 111.769356,663.692383 111.962860,645.041748 
	C112.055649,636.098755 120.022011,629.100098 129.682556,629.032715 
	C144.841888,628.927002 160.002502,629.001282 175.162567,629.000916 
	C204.816360,629.000244 234.474182,629.279907 264.121765,628.850525 
	C274.605804,628.698792 284.694489,636.394409 284.196503,649.091675 
	C283.531006,666.058167 284.030762,683.070496 284.015076,700.531555 
	C226.979111,701.000000 169.958206,701.000000 112.468658,701.000000 
z"/>
<path fill="currentColor" opacity="1.000000" stroke="none" 
	d="
M915.427856,168.440216 
	C863.189453,253.634064 811.415039,338.686371 758.925110,423.294800 
	C748.978149,439.328247 736.233215,453.631805 724.708557,468.679352 
	C692.447815,510.801575 660.144348,552.891052 627.870483,595.003296 
	C618.121277,607.724304 604.109558,609.693115 591.216003,599.959717 
	C577.941895,589.939026 564.711365,579.858887 551.555603,569.683472 
	C540.023376,560.763733 538.172729,546.009766 547.118896,534.318909 
	C587.245178,481.881500 627.734985,429.718201 667.427612,376.955017 
	C684.646423,354.066223 705.258850,334.448914 724.737183,313.748444 
	C804.890442,228.566101 885.384277,143.704224 965.753967,58.725571 
	C966.669922,57.757179 967.599182,56.801380 968.525635,55.843002 
	C972.773254,51.449219 976.094543,50.603928 979.229065,53.326504 
	C983.132935,56.717300 981.847412,60.287979 979.506592,63.985580 
	C975.416931,70.445534 971.475403,76.999420 967.480957,83.519524 
	C950.200012,111.726799 932.922363,139.936096 915.427856,168.440216 
z"/>
<path fill="currentColor" opacity="1.000000" stroke="none" 
	d="
M421.287292,516.108765 
	C425.931000,514.948486 430.231415,513.142029 434.549408,513.099060 
	C461.205902,512.833801 487.866333,512.965881 515.254028,512.965881 
	C514.361938,514.348206 513.784851,515.389832 513.070557,516.326843 
	C504.903961,527.039612 496.682434,537.710632 488.547058,548.446960 
	C483.325165,555.338379 484.008423,559.669861 490.841797,564.901123 
	C512.728699,581.656738 534.596802,598.436829 557.506592,616.000488 
	C554.988159,616.000488 553.595459,616.000488 552.202759,616.000488 
	C513.044922,616.000488 473.887054,616.009460 434.729218,615.996155 
	C419.553314,615.991028 408.967896,605.474243 408.943542,590.374878 
	C408.915833,573.212158 409.105499,556.046936 408.869659,538.887390 
	C408.733154,528.953857 412.860168,521.642090 421.287292,516.108765 
z"/>
</svg>