<svg version="1.1" id="Layer_1" xmlns="http://www.w3.org/2000/svg" xmlns:xlink="http://www.w3.org/1999/xlink" x="0px" y="0px"
	 width="100%" viewBox="0 0 976 688" enable-background="new 0 0 976 688" xml:space="preserve">
<path fill="currentColor" opacity="1.000000" stroke="none" 
	d="
M1.000000,375.468658 
	C4.658317,374.885742 8.316615,374.672272 11.974953,374.671631 
	C115.952713,374.652954 219.930466,374.654449 323.908234,374.657593 
	C331.333160,374.657837 331.342102,374.675354 331.345825,381.902832 
	C331.352081,394.066895 331.177948,406.234467 331.431824,418.393188 
	C331.525940,422.901001 330.194092,424.471527 325.532288,424.412720 
	C307.205811,424.181427 288.874634,424.301239 270.545258,424.326172 
	C261.453400,424.338562 258.315918,427.503387 258.306976,436.689758 
	C258.284454,459.851440 258.282043,483.013184 258.311157,506.174835 
	C258.321808,514.628479 262.270233,518.592163 270.861389,518.624451 
	C288.857300,518.692078 306.853607,518.641113 324.849762,518.658203 
	C331.321289,518.664307 331.337067,518.689636 331.344299,525.339966 
	C331.356659,536.670898 331.357178,548.001770 331.342438,559.332703 
	C331.333923,565.894653 331.293457,565.965454 324.614777,565.971008 
	C276.791687,566.010681 228.968582,566.058472 181.145493,566.046692 
	C123.824463,566.032654 66.503448,565.962524 9.182425,565.913940 
	C6.688429,565.911804 4.194456,565.882202 1.350236,565.932678 
	C1.000000,502.645782 1.000000,439.291534 1.000000,375.468658 
z"/>
<path fill="currentColor" opacity="1.000000" stroke="none" 
	d="
M0.999999,152.468658 
	C2.264601,148.932693 3.363103,145.783844 4.821756,142.811783 
	C12.246200,127.684166 24.646591,119.219887 41.265083,118.971512 
	C77.737213,118.426407 114.226791,118.481087 150.701981,118.909538 
	C174.574753,119.189957 191.970261,137.399033 192.052994,161.902466 
	C192.264465,224.533737 192.106735,287.166229 192.134048,349.798248 
	C192.135529,353.183746 191.699982,355.461029 187.326706,355.451691 
	C126.692963,355.322174 66.058952,355.323486 5.425010,355.283783 
	C4.260482,355.283020 3.096025,355.172913 1.465767,355.056915 
	C1.000000,287.645782 1.000000,220.291550 0.999999,152.468658 
z"/>
<path fill="currentColor" opacity="1.000000" stroke="none" 
	d="
M907.600037,1.000000 
	C914.283752,5.528048 914.717957,8.048145 910.313232,15.228350 
	C878.515198,67.062790 846.697754,118.885300 814.901917,170.721069 
	C780.666443,226.534027 746.592346,282.446747 712.127197,338.117493 
	C702.662109,353.406219 690.780212,367.036163 679.875427,381.325134 
	C648.235840,422.783966 616.477600,464.152313 584.764343,505.554932 
	C584.055176,506.480713 583.340210,507.402496 582.606506,508.308838 
	C576.696411,515.609375 570.658020,516.677795 563.178162,511.046997 
	C544.944580,497.320801 526.834167,483.428955 508.792084,469.451569 
	C502.823029,464.827271 502.256042,458.145416 507.092407,451.779572 
	C525.332153,427.771484 543.619690,403.799377 561.964478,379.871429 
	C583.248840,352.109192 605.097595,324.762573 625.745117,296.536102 
	C636.759888,281.478149 650.001282,268.649841 662.618469,255.201920 
	C707.768311,207.079163 753.311768,159.325775 798.680969,111.408669 
	C831.905945,76.317680 865.084961,41.183174 898.313538,6.095578 
	C899.905762,4.414237 901.779053,2.999021 903.760742,1.229930 
	C905.066711,1.000000 906.133362,1.000000 907.600037,1.000000 
z"/>
<path fill="currentColor" opacity="1.000000" stroke="none" 
	d="
M1.000000,590.468628 
	C3.571722,591.026123 6.268682,590.633545 8.914467,590.633911 
	C136.873688,590.651489 264.832886,590.649048 392.792114,590.649170 
	C394.791473,590.649170 396.813202,590.844727 398.785645,590.615173 
	C403.199463,590.101624 404.471771,591.910095 404.444458,596.284363 
	C404.268738,624.440979 404.344360,652.599182 404.369476,680.756897 
	C404.371674,683.245056 404.602844,685.732910 404.863831,688.610474 
	C333.979095,689.000000 262.958221,689.000000 191.387299,688.537048 
	C190.807983,675.426025 190.817627,662.777649 190.737915,650.129883 
	C190.664856,638.536560 183.739914,631.469421 172.131027,631.417236 
	C148.997345,631.313354 125.862671,631.310486 102.728920,631.400085 
	C90.330589,631.448120 83.414635,638.644226 83.340370,651.089783 
	C83.264954,663.726746 83.116478,676.363281 83.000000,689.000000 
	C55.732887,689.000000 28.465776,689.000000 1.000000,689.000000 
	C1.000000,656.312683 1.000000,623.625000 1.000000,590.468628 
z"/>
<path fill="currentColor" opacity="1.000000" stroke="none" 
	d="
M444.000000,423.028595 
	C453.868439,423.266693 463.278778,422.474243 473.796539,423.619904 
	C468.487701,430.592896 463.890472,436.652130 459.269714,442.693420 
	C455.830872,447.189484 452.302490,451.618256 448.920319,456.156281 
	C444.390900,462.233643 444.995331,466.955200 451.062775,471.621460 
	C469.935730,486.136047 488.873505,500.566284 507.774719,515.044128 
	C509.032990,516.007935 510.769012,516.579285 511.014069,518.571350 
	C509.586121,519.933105 507.843781,519.329712 506.280731,519.331055 
	C465.474548,519.366089 424.666870,519.163879 383.862854,519.462585 
	C369.702393,519.566284 356.729614,508.126221 357.491302,493.107819 
	C358.224304,478.654602 358.273804,464.100067 357.462982,449.655182 
	C356.741760,436.806458 366.864807,422.755005 384.040161,422.966278 
	C403.857361,423.210083 423.679810,423.026978 444.000000,423.028595 
z"/>
</svg>