<svg version="1.1" id="Layer_1" xmlns="http://www.w3.org/2000/svg" xmlns:xlink="http://www.w3.org/1999/xlink" x="0px" y="0px"
	 width="100%" viewBox="0 0 986 700" enable-background="new 0 0 986 700" xml:space="preserve">
<path fill="none" opacity="1.000000" stroke="none" 
	d="
M1.000000,591.000000 
	C1.000000,582.643372 1.000000,574.286682 1.463284,565.541016 
	C111.487961,565.152039 221.049362,565.152039 330.653595,565.152039 
	C330.653595,511.187683 330.653595,457.665283 330.653595,404.000000 
	C220.548965,404.000000 110.774483,404.000000 1.000000,404.000000 
	C1.000000,395.643341 1.000000,387.286682 1.468657,378.465271 
	C65.023201,378.000549 128.109085,378.000549 191.373535,378.000549 
	C191.373535,340.177643 191.396164,302.890137 191.366196,265.602661 
	C191.343307,237.119202 191.643326,208.627777 191.057663,180.155167 
	C190.664261,161.030426 173.659836,143.777679 154.595947,142.906906 
	C137.472992,142.124802 120.296692,142.418762 103.143814,142.407166 
	C81.991501,142.392853 60.816078,141.975983 39.693783,142.816803 
	C21.996407,143.521286 10.231529,153.556320 3.653183,169.826080 
	C2.813738,171.902222 1.886547,173.942902 1.000003,176.000000 
	C1.000000,117.676964 1.000000,59.353931 1.000000,1.015448 
	C329.598358,1.015448 658.196716,1.015448 986.897522,1.015448 
	C986.897522,234.223770 986.897522,467.447601 986.897522,701.000000 
	C792.976807,701.000000 598.953430,701.000000 404.491241,700.531982 
	C404.052460,663.817993 404.052460,627.571960 404.052460,591.000000 
	C269.385895,591.000000 135.192947,591.000000 1.000000,591.000000 
M524.111694,511.393951 
	C525.834656,512.699707 527.674500,513.877808 529.261963,515.331543 
	C541.849426,526.858459 558.944336,521.918701 567.498840,510.472351 
	C596.075439,472.235382 625.454773,434.598938 654.452942,396.676147 
	C665.763000,381.885315 678.132263,367.720276 687.878723,351.947571 
	C754.116394,244.755386 819.784119,137.210907 885.621033,29.771030 
	C886.917725,27.654827 888.888733,25.468420 888.997742,23.239077 
	C889.114929,20.843037 888.052612,17.495804 886.294128,16.172560 
	C884.775269,15.029599 881.475281,15.810775 879.125488,16.395458 
	C877.891174,16.702579 876.994507,18.401535 875.964478,19.490162 
	C797.518005,102.403503 719.012146,185.260880 640.688477,268.290131 
	C627.572693,282.193909 614.441650,296.215149 602.706421,311.264984 
	C565.579102,358.878815 529.095825,406.995056 492.397400,454.942963 
	C483.238159,466.909882 485.086670,481.237030 497.013000,490.606812 
	C505.777374,497.492432 514.686157,504.194214 524.111694,511.393951 
M466.603241,505.909454 
	C457.777771,499.120911 448.934845,492.354919 440.132324,485.536804 
	C432.885712,479.923798 432.414398,475.736694 438.066742,468.358185 
	C445.906036,458.124908 453.734589,447.883362 462.087769,436.965668 
	C459.838440,436.965668 458.411591,436.965637 456.984741,436.965637 
	C434.176910,436.965698 411.369080,436.954681 388.561249,436.969879 
	C374.254639,436.979431 363.911499,446.913147 363.720581,461.234772 
	C363.516418,476.548126 363.536469,491.868103 363.725006,507.181915 
	C363.904816,521.783752 374.512390,531.982178 389.229614,531.992615 
	C424.856445,532.017883 460.483276,532.004028 496.110107,531.986755 
	C497.294769,531.986206 498.479340,531.779297 500.224976,531.616150 
	C488.822906,522.877319 478.009552,514.589722 466.603241,505.909454 
z"/>
<path fill="currentColor" opacity="1.000000" stroke="none" 
	d="
M1.000000,404.468658 
	C110.774483,404.000000 220.548965,404.000000 330.653595,404.000000 
	C330.653595,457.665283 330.653595,511.187683 330.653595,565.152039 
	C221.049362,565.152039 111.487961,565.152039 1.463284,565.076050 
	C1.000000,511.645782 1.000000,458.291534 1.000000,404.468658 
z"/>
<path fill="currentColor" opacity="1.000000" stroke="none" 
	d="
M1.000003,176.468658 
	C1.886547,173.942902 2.813738,171.902222 3.653183,169.826080 
	C10.231529,153.556320 21.996407,143.521286 39.693783,142.816803 
	C60.816078,141.975983 81.991501,142.392853 103.143814,142.407166 
	C120.296692,142.418762 137.472992,142.124802 154.595947,142.906906 
	C173.659836,143.777679 190.664261,161.030426 191.057663,180.155167 
	C191.643326,208.627777 191.343307,237.119202 191.366196,265.602661 
	C191.396164,302.890137 191.373535,340.177643 191.373535,378.000549 
	C128.109085,378.000549 65.023201,378.000549 1.468657,378.000275 
	C1.000000,310.979095 1.000000,243.958206 1.000003,176.468658 
z"/>
<path fill="currentColor" opacity="1.000000" stroke="none" 
	d="
M1.000000,591.468628 
	C135.192947,591.000000 269.385895,591.000000 404.052460,591.000000 
	C404.052460,627.571960 404.052460,663.817993 404.026245,700.531982 
	C333.312439,701.000000 262.624878,701.000000 191.633759,700.556885 
	C191.329773,682.983582 191.511902,665.850708 191.261841,648.724243 
	C191.106735,638.100586 183.723236,631.060913 173.175064,631.026062 
	C149.225662,630.946899 125.275650,630.947571 101.326241,631.024719 
	C90.378304,631.059998 83.008163,638.613037 82.990280,649.608215 
	C82.962418,666.738770 82.993752,683.869385 83.000000,701.000000 
	C55.729084,701.000000 28.458168,701.000000 1.000000,701.000000 
	C1.000000,664.645996 1.000000,628.291626 1.000000,591.468628 
z"/>
<path fill="none" opacity="1.000000" stroke="none" 
	d="
M83.468658,701.000000 
	C82.993752,683.869385 82.962418,666.738770 82.990280,649.608215 
	C83.008163,638.613037 90.378304,631.059998 101.326241,631.024719 
	C125.275650,630.947571 149.225662,630.946899 173.175064,631.026062 
	C183.723236,631.060913 191.106735,638.100586 191.261841,648.724243 
	C191.511902,665.850708 191.329773,682.983582 191.165100,700.556885 
	C155.312439,701.000000 119.624878,701.000000 83.468658,701.000000 
z"/>
<path fill="currentColor" opacity="1.000000" stroke="none" 
	d="
M523.821167,511.185974 
	C514.686157,504.194214 505.777374,497.492432 497.013000,490.606812 
	C485.086670,481.237030 483.238159,466.909882 492.397400,454.942963 
	C529.095825,406.995056 565.579102,358.878815 602.706421,311.264984 
	C614.441650,296.215149 627.572693,282.193909 640.688477,268.290131 
	C719.012146,185.260880 797.518005,102.403503 875.964478,19.490162 
	C876.994507,18.401535 877.891174,16.702579 879.125488,16.395458 
	C881.475281,15.810775 884.775269,15.029599 886.294128,16.172560 
	C888.052612,17.495804 889.114929,20.843037 888.997742,23.239077 
	C888.888733,25.468420 886.917725,27.654827 885.621033,29.771030 
	C819.784119,137.210907 754.116394,244.755386 687.878723,351.947571 
	C678.132263,367.720276 665.763000,381.885315 654.452942,396.676147 
	C625.454773,434.598938 596.075439,472.235382 567.498840,510.472351 
	C558.944336,521.918701 541.849426,526.858459 529.261963,515.331543 
	C527.674500,513.877808 525.834656,512.699707 523.821167,511.185974 
z"/>
<path fill="currentColor" opacity="1.000000" stroke="none" 
	d="
M466.899719,506.105774 
	C478.009552,514.589722 488.822906,522.877319 500.224976,531.616150 
	C498.479340,531.779297 497.294769,531.986206 496.110107,531.986755 
	C460.483276,532.004028 424.856445,532.017883 389.229614,531.992615 
	C374.512390,531.982178 363.904816,521.783752 363.725006,507.181915 
	C363.536469,491.868103 363.516418,476.548126 363.720581,461.234772 
	C363.911499,446.913147 374.254639,436.979431 388.561249,436.969879 
	C411.369080,436.954681 434.176910,436.965698 456.984741,436.965637 
	C458.411591,436.965637 459.838440,436.965668 462.087769,436.965668 
	C453.734589,447.883362 445.906036,458.124908 438.066742,468.358185 
	C432.414398,475.736694 432.885712,479.923798 440.132324,485.536804 
	C448.934845,492.354919 457.777771,499.120911 466.899719,506.105774 
z"/>
</svg>